<?xml version="1.0" standalone="no"?>
<!DOCTYPE svg PUBLIC "-//W3C//DTD SVG 20010904//EN"
 "http://www.w3.org/TR/2001/REC-SVG-20010904/DTD/svg10.dtd">
<svg version="1.0" xmlns="http://www.w3.org/2000/svg"
 width="480.000000pt" height="480.000000pt" viewBox="0 0 480.000000 480.000000"
 preserveAspectRatio="xMidYMid meet">
<metadata>
Created by potrace 1.14, written by Peter Selinger 2001-2017
</metadata>
<g transform="translate(0.000000,480.000000) scale(0.100000,-0.100000)"
fill="#000000" stroke="none">
<path d="M1785 3883 c-208 -40 -293 -88 -445 -255 -130 -141 -131 -145 -141
-378 -4 -107 -12 -220 -18 -250 -5 -30 -10 -137 -10 -237 -1 -215 -4 -223 -98
-277 -108 -62 -140 -136 -105 -240 l20 -60 -30 -30 c-16 -17 -52 -57 -79 -89
l-49 -57 0 -83 c0 -45 5 -98 10 -117 15 -51 60 -110 100 -131 81 -42 122 -59
141 -59 23 0 61 -18 115 -55 20 -14 46 -25 57 -25 20 0 20 -4 14 -157 -4 -87
-11 -187 -17 -223 -5 -36 -10 -164 -10 -285 -1 -121 -5 -296 -10 -390 -5 -93
-13 -241 -16 -327 l-7 -158 90 0 90 0 7 148 c3 81 11 224 16 317 5 94 9 241 9
328 l1 158 28 -15 c15 -8 43 -31 62 -51 54 -56 238 -175 271 -175 6 0 24 -11
41 -25 16 -14 35 -25 42 -25 16 0 87 -75 114 -121 l22 -36 -25 -79 c-22 -70
-25 -98 -25 -236 0 -86 3 -163 6 -172 5 -13 23 -16 93 -16 l86 0 -4 152 c-2
93 1 165 8 188 l11 37 132 7 c73 3 228 10 343 16 239 11 280 17 423 58 95 28
109 36 170 90 105 93 158 214 181 407 6 50 11 252 11 450 1 198 2 495 3 660 2
277 -14 692 -27 713 -3 5 -10 83 -16 173 -14 232 -38 398 -73 512 -25 81 -38
107 -76 149 -25 28 -60 57 -77 64 -17 7 -51 28 -75 46 -53 41 -143 85 -184 91
-16 3 -79 19 -140 35 -190 52 -188 52 -543 51 -258 -1 -356 -5 -417 -16z m770
-173 c25 -6 66 -15 93 -20 138 -30 269 -82 361 -143 92 -61 94 -63 113 -122
11 -33 25 -99 32 -147 l13 -87 -51 -5 c-28 -3 -431 -7 -895 -8 l-843 -3 4 110
c3 65 10 120 18 135 23 44 153 179 205 214 48 32 79 43 195 65 30 6 64 13 75
15 45 9 638 5 680 -4z m629 -692 c3 -13 7 -68 9 -122 l3 -99 -190 7 c-239 8
-295 1 -340 -43 -41 -40 -86 -126 -86 -165 0 -28 0 -28 -52 -21 -29 3 -74 11
-100 17 -43 11 -47 14 -59 56 -15 56 -45 91 -111 133 l-53 34 -206 -2 c-242
-2 -321 -18 -384 -77 -30 -29 -35 -40 -35 -80 l0 -46 -116 0 -116 0 4 194 c2
107 7 199 12 203 4 4 263 9 574 9 312 1 612 6 667 11 55 6 207 11 337 11 l238
2 4 -22z m-1040 -388 c21 -4 43 -15 47 -22 14 -21 10 -164 -7 -295 l-17 -123
-150 0 c-84 0 -167 5 -188 11 -57 18 -71 67 -71 260 0 83 3 154 7 157 6 6 165
17 285 20 30 1 73 -3 94 -8z m976 -10 l97 0 6 -112 c4 -62 10 -157 13 -211 l7
-97 -104 6 c-57 3 -117 10 -133 15 -16 5 -73 9 -127 9 l-98 0 -5 138 c-3 75
-6 159 -8 187 -4 69 14 78 151 71 57 -3 148 -6 201 -6z m-1539 -280 c5 -78 19
-152 40 -207 11 -29 87 -80 156 -104 75 -25 374 -28 458 -3 83 23 110 61 118
160 3 43 11 113 18 155 l11 77 29 -8 c16 -5 65 -12 109 -16 l80 -7 0 -133 c0
-124 1 -135 23 -160 28 -32 80 -43 216 -43 52 -1 120 -6 150 -11 31 -6 100
-13 154 -16 l97 -6 0 -91 c0 -51 -5 -137 -10 -191 -9 -93 -12 -102 -42 -133
-35 -36 -93 -67 -148 -78 -19 -4 -48 -13 -65 -20 -129 -53 -316 -71 -631 -61
-209 7 -317 19 -426 48 -65 17 -88 29 -137 72 -56 48 -140 106 -155 106 -4 0
-38 25 -77 55 -75 61 -85 78 -125 215 -16 56 -32 91 -47 103 -12 10 -47 37
-77 61 -32 25 -78 77 -112 126 l-56 84 60 35 c33 20 68 46 77 58 15 22 21 23
161 20 l145 -2 6 -85z m-407 -365 c77 -69 85 -87 102 -210 7 -48 6 -49 -12
-34 -28 24 -98 58 -167 80 -79 25 -87 33 -87 86 0 38 6 52 43 93 23 27 43 49
45 50 2 0 36 -29 76 -65z"/>
<path d="M2381 1772 c-38 -38 -41 -80 -7 -119 21 -24 33 -28 102 -34 44 -4
132 -8 197 -8 118 -1 119 -1 148 28 20 20 29 39 29 61 0 22 -9 41 -29 61 -28
27 -34 29 -114 29 -46 0 -132 3 -190 6 l-106 7 -30 -31z"/>
</g>
</svg>
